<svg xmlns:xlink="http://www.w3.org/1999/xlink" xmlns="http://www.w3.org/2000/svg" width="34" height="34" viewBox="0 0 34 34" fill="none">
<path d="M34 17C34 26.39 26.39 34 17 34C7.61 34 0 26.39 0 17C0 7.61 7.61 0 17 0C26.39 0 34 7.61 34 17Z" fill="#E89024"></path>
<path d="M15.6095 7.34977V26.2198C15.6095 26.4098 15.4595 26.5598 15.2695 26.5598H6.85953C6.66953 26.5598 6.51953 26.4098 6.51953 26.2198V7.34977C6.51953 7.15977 6.66953 7.00977 6.85953 7.00977H15.2695C15.4595 7.00977 15.6095 7.15977 15.6095 7.34977Z" fill="#176699"></path>
<path d="M10.6395 10.6501H8.31953C8.31953 10.6501 8.26953 10.6301 8.26953 10.6001V8.88008C8.26953 8.88008 8.28953 8.83008 8.31953 8.83008H10.6395C10.6395 8.83008 10.6895 8.85008 10.6895 8.88008V10.6001C10.6895 10.6001 10.6695 10.6501 10.6395 10.6501Z" fill="#E8E8E8"></path>
<path d="M13.8114 10.6501H11.4914C11.4914 10.6501 11.4414 10.6301 11.4414 10.6001V8.88008C11.4414 8.88008 11.4614 8.83008 11.4914 8.83008H13.8114C13.8114 8.83008 13.8614 8.85008 13.8614 8.88008V10.6001C13.8614 10.6001 13.8414 10.6501 13.8114 10.6501Z" fill="#E8E8E8"></path>
<path d="M10.6395 13.2204H8.31953C8.31953 13.2204 8.26953 13.2004 8.26953 13.1704V11.4504C8.26953 11.4504 8.28953 11.4004 8.31953 11.4004H10.6395C10.6395 11.4004 10.6895 11.4204 10.6895 11.4504V13.1704C10.6895 13.1704 10.6695 13.2204 10.6395 13.2204Z" fill="#E8E8E8"></path>
<path d="M13.8114 13.2204H11.4914C11.4914 13.2204 11.4414 13.2004 11.4414 13.1704V11.4504C11.4414 11.4504 11.4614 11.4004 11.4914 11.4004H13.8114C13.8114 11.4004 13.8614 11.4204 13.8614 11.4504V13.1704C13.8614 13.1704 13.8414 13.2204 13.8114 13.2204Z" fill="#E8E8E8"></path>
<path d="M10.6395 15.7809H8.31953C8.31953 15.7809 8.26953 15.7609 8.26953 15.7309V14.0109C8.26953 14.0109 8.28953 13.9609 8.31953 13.9609H10.6395C10.6395 13.9609 10.6895 13.9809 10.6895 14.0109V15.7309C10.6895 15.7309 10.6695 15.7809 10.6395 15.7809Z" fill="#E8E8E8"></path>
<path d="M13.8114 15.7809H11.4914C11.4914 15.7809 11.4414 15.7609 11.4414 15.7309V14.0109C11.4414 14.0109 11.4614 13.9609 11.4914 13.9609H13.8114C13.8114 13.9609 13.8614 13.9809 13.8614 14.0109V15.7309C13.8614 15.7309 13.8414 15.7809 13.8114 15.7809Z" fill="#E8E8E8"></path>
<path d="M6.51953 25.7812V26.2212C6.51953 26.2912 6.53953 26.3612 6.57953 26.4212C6.53953 26.3612 6.51953 26.3012 6.51953 26.2212V25.7812Z" fill="#D49445"></path>
<path d="M15.6117 12.3594L13.8517 14.9494V15.7294C13.8517 15.7294 13.8317 15.7794 13.8017 15.7794H13.2917L6.51172 25.7794V26.2194C6.51172 26.2894 6.53172 26.3594 6.57172 26.4194C6.61172 26.4794 6.67172 26.5194 6.73172 26.5494C6.77172 26.5594 6.80172 26.5694 6.84172 26.5694C6.84172 26.5694 6.76172 26.5694 6.73172 26.5494L15.6117 13.4594V12.3594Z" fill="#145C8A"></path>
<path d="M13.8491 14.9592L13.2891 15.7792H13.7991C13.7991 15.7792 13.8491 15.7592 13.8491 15.7292V14.9492V14.9592Z" fill="#D1D1D1"></path>
<path d="M27.66 26.5602H6.86C6.86 26.5602 6.78 26.5602 6.75 26.5402L15.61 13.4602L17.06 11.3202C17.13 11.2102 17.25 11.1602 17.37 11.1602C17.47 11.1602 17.58 11.2102 17.64 11.3102L27.95 26.0002C28.12 26.2402 27.95 26.5602 27.66 26.5602Z" fill="#26ABFF"></path>
<path d="M27.6611 26.5599H17.3711V11.1699C17.4711 11.1699 17.5811 11.2199 17.6411 11.3199L27.9511 26.0099C28.1211 26.2499 27.9511 26.5699 27.6611 26.5699" fill="#2199E5"></path>
<path d="M18.5591 15.26C18.6291 15.88 18.9391 17.42 20.1991 18.31V22.25H20.1391L18.8391 23.09L20.4691 23.07C20.4391 23.14 20.4191 23.22 20.4191 23.31V26.56H21.1091V23.31C21.1091 23.07 21.2491 22.88 21.4191 22.88H23.8691C23.8691 22.88 23.8991 22.88 23.9191 22.88C23.9491 22.88 23.9691 22.9 23.9891 22.91C24.0491 22.78 24.0991 22.64 24.1491 22.5H20.8791V15.95L20.5891 15.52C19.9091 15.3 18.9191 15.26 18.5391 15.25L18.5591 15.26ZM24.3391 20.93V22.28C24.5591 22.28 24.8891 22.23 25.2191 22.2L24.3291 20.93H24.3391Z" fill="#1F8ACF"></path>
<path d="M25.5584 18.26C24.7184 14.68 27.4984 12.33 28.4284 12C28.6484 13.12 28.8284 16.42 25.5584 18.26Z" fill="white"></path>
<path d="M28.9917 18.3496C28.5017 19.1996 28.2117 20.5896 27.4317 21.5396C27.4017 21.5796 27.3617 21.6196 27.3317 21.6596C26.6117 22.3996 25.4117 22.3396 24.9517 22.2796C24.8317 22.2596 24.7617 22.2496 24.7617 22.2496C24.7617 22.1796 24.7517 21.8296 25.5317 20.3296C26.4017 18.6496 29.0017 18.3496 29.0017 18.3496" fill="white"></path>
<path d="M22.0386 8.63031C18.7486 8.07031 18.5586 5.07031 18.5586 5.07031C21.7886 5.77031 22.0286 8.09031 22.0386 8.55031C22.0386 8.60031 22.0386 8.63031 22.0386 8.63031Z" fill="white"></path>
<path d="M22.0386 8.55031C22.0386 8.60031 22.0386 8.63031 22.0386 8.63031C18.7486 8.07031 18.5586 5.07031 18.5586 5.07031C18.5586 5.07031 21.5786 7.68031 22.0386 8.55031Z" fill="#E8E8E8"></path>
<path d="M24.1911 23.3089V28.4489C24.1911 28.6889 24.0511 28.8789 23.8811 28.8789H21.4311C21.2611 28.8789 21.1211 28.6889 21.1211 28.4489V23.3089C21.1211 23.0689 21.2611 22.8789 21.4311 22.8789H23.8811C24.0511 22.8789 24.1911 23.0689 24.1911 23.3089Z" fill="#A1A1A1"></path>
<path d="M25.2392 14.5511C22.7392 10.9011 25.5492 7.87109 25.5492 7.87109C28.1492 11.9711 25.2392 14.5511 25.2392 14.5511Z" fill="white"></path>
<path d="M24.3606 8.37V22.51H20.8906V8.37C20.8906 5.07 22.6206 3.75 22.6206 3.75C22.6206 3.75 24.3506 4.97 24.3506 8.37" fill="#B5B5B5"></path>
<path d="M24.3589 8.36977V22.5098H22.6289V3.75977C22.6289 3.75977 24.3589 4.97977 24.3589 8.37977" fill="#8C8C8C"></path>
<path d="M22.6309 5.82031C22.6309 5.82031 23.3109 6.89031 23.3109 9.86031V22.2503H21.9609V9.86031C21.9609 6.96031 22.6409 5.82031 22.6409 5.82031" fill="#DBDBDB"></path>
<path d="M24.3594 14.9492V15.6692C24.4194 15.6692 24.4894 15.6692 24.5594 15.6792C24.8094 16.0492 25.4294 17.1492 25.1694 18.7292L25.4394 17.8292L25.4594 17.7592C25.4494 17.6592 25.4394 17.5592 25.4294 17.4692C25.4094 17.3492 25.3794 17.2092 25.3294 17.0392C25.2194 16.6592 25.0094 16.1692 24.6394 15.6792V15.6592C24.6094 15.5892 24.5794 15.5192 24.5594 15.4492C24.4994 15.2692 24.4394 15.1092 24.3694 14.9492" fill="#D49445"></path>
<path d="M25.4297 17.4805C25.4297 17.5705 25.4497 17.6605 25.4597 17.7605C25.4597 17.7305 25.4597 17.6305 25.4297 17.4805Z" fill="#E5E5E5"></path>
<path d="M20.8906 11.8203V14.8603C21.1806 15.0903 21.5306 15.3003 21.9506 15.4803V12.3203C21.5906 12.1103 21.2306 11.9503 20.8906 11.8203Z" fill="#A3A3A3"></path>
<path d="M23.3008 13.3711V15.8611C23.6208 15.9211 23.9808 15.9611 24.3608 15.9811V14.9511C24.0908 14.3311 23.7208 13.8111 23.3008 13.3711Z" fill="#7D7D7D"></path>
<path d="M21.9492 12.3203V15.4803C22.3392 15.6403 22.7892 15.7803 23.2992 15.8603V13.3703C22.8792 12.9303 22.4192 12.5903 21.9492 12.3203Z" fill="#C4C4C4"></path>
<path d="M24.1902 23.3109V28.4509C24.1902 28.6909 24.0502 28.8809 23.8802 28.8809H22.6602V23.0909L23.2702 22.8809H23.8802C23.8802 22.8809 23.9302 22.8809 23.9602 22.8909C24.0902 22.9409 24.1902 23.1009 24.1902 23.3109Z" fill="#8C8C8C"></path>
<path d="M21.121 26.6311C20.541 27.1011 19.911 27.4911 19.221 27.7611C19.221 27.7611 18.661 28.4911 19.621 28.9911C19.711 28.9511 20.321 28.7411 21.121 28.1911V26.6211V26.6311Z" fill="#D49445"></path>
<path d="M22.6511 25.0312C22.1911 25.6313 21.6811 26.1712 21.1211 26.6312V28.2013C21.5911 27.8713 22.1311 27.4212 22.6511 26.8212V25.0312Z" fill="#919191"></path>
<path d="M23.9484 22.9004C23.5884 23.6604 23.1484 24.3804 22.6484 25.0304V26.8204C23.1884 26.2004 23.7284 25.4304 24.1784 24.4504V23.3204C24.1784 23.1204 24.0784 22.9504 23.9484 22.9004Z" fill="#7D7D7D"></path>
<path d="M20.8906 15.9199V18.6199C21.1906 18.8299 21.5406 18.9999 21.9506 19.1299V16.3499C21.6006 16.1699 21.2406 16.0299 20.8906 15.9199Z" fill="#A3A3A3"></path>
<path d="M23.3008 17.2812V19.3012C23.5808 19.3012 23.8708 19.2812 24.1808 19.2412C24.2408 19.3412 24.3008 19.4612 24.3508 19.6012V19.0212C24.3508 19.0212 24.3008 18.9512 24.2808 18.9112C24.1008 18.2612 23.7408 17.7213 23.3008 17.2913" fill="#7D7D7D"></path>
<path d="M21.9492 16.3398V19.1198C22.3392 19.2398 22.7892 19.2998 23.2992 19.2998V17.2798C22.8992 16.8898 22.4292 16.5798 21.9492 16.3398Z" fill="#C4C4C4"></path>
<path d="M24.3589 21.9688C24.2889 22.1488 24.2089 22.3288 24.1289 22.5088H24.3589V21.9688Z" fill="#7D7D7D"></path>
<path d="M19.5391 23.09L24.4591 23.02L24.7491 22.25H20.8391L19.5391 23.09Z" fill="#D4D4D4"></path>
<path d="M24.762 15.6907C24.762 15.6907 24.672 15.6907 24.632 15.6907H24.562C24.492 15.6907 24.432 15.6907 24.362 15.6807C22.722 15.5807 21.632 15.1507 20.892 14.5907C19.542 13.5607 19.402 12.0907 19.332 11.4707C19.682 11.4707 20.252 11.5607 20.892 11.7607C22.102 12.1407 23.572 12.9607 24.362 14.5707C24.492 14.8407 24.612 15.1307 24.692 15.4507C24.712 15.5307 24.732 15.6107 24.752 15.7007" fill="white"></path>
<path d="M24.3605 18.921C24.3005 18.921 24.2405 18.931 24.1905 18.941C20.2605 19.371 19.3405 16.271 19.2305 15.291C20.3905 15.321 23.8705 16.161 24.3705 18.921" fill="white"></path>
<path d="M25.5427 17.5411L25.4527 17.8411L25.1827 18.7411C25.4427 17.1711 24.8227 16.0611 24.5727 15.6911C24.5127 15.6011 24.4727 15.5511 24.4727 15.5511L24.5627 15.4611L24.6527 15.3711C24.6527 15.3711 24.6927 15.4211 24.7127 15.4411C25.5327 16.5111 25.5527 17.5411 25.5527 17.5411" fill="white"></path>
<path d="M23.9202 18.5316C23.9202 18.5316 24.9602 19.7616 24.6302 21.7116L24.9902 20.5216C24.9902 20.5216 24.9602 19.4516 24.0902 18.3516L23.9102 18.5316H23.9202Z" fill="white"></path>
<path d="M25.6118 19.9609C24.1818 26.6209 20.0818 28.5009 19.6618 28.6809H19.6218C18.7718 28.2509 19.1218 27.6209 19.2018 27.4909L19.2218 27.4609C21.3218 26.6209 22.9518 24.7109 23.9918 22.5109C24.1218 22.2309 24.2518 21.9509 24.3618 21.6609C25.0718 19.8809 25.4018 17.9809 25.3118 16.3409C25.2418 15.0409 24.8518 13.8809 24.3618 12.9109V11.9609C25.4618 13.7909 26.3618 16.4709 25.6118 19.9409" fill="white"></path>
<path d="M19.332 11.4609C19.442 12.4509 19.792 15.5309 24.562 15.6809C24.562 15.6809 21.512 12.6609 19.332 11.4609Z" fill="#E8E8E8"></path>
<path d="M24.1905 18.941C20.2605 19.371 19.3405 16.271 19.2305 15.291C22.0505 16.901 24.1305 18.871 24.1905 18.941Z" fill="#E8E8E8"></path>
<path d="M25.4234 14.3611C25.4234 14.3611 28.1634 11.9611 25.5534 7.87109C25.5534 7.87109 25.2434 11.2711 25.4234 14.3611Z" fill="#E8E8E8"></path>
<path d="M25.832 18.09C29.092 16.25 28.652 13.12 28.432 12C28.432 12 26.492 15.88 25.832 18.09Z" fill="#E8E8E8"></path>
<path d="M28.9931 18.3516C28.5031 19.2016 28.2131 20.5916 27.4331 21.5416C27.4031 21.5816 27.3631 21.6216 27.3331 21.6616C26.4631 22.5716 25.0231 22.3016 24.9531 22.2816C25.0131 22.2116 27.8531 19.0816 29.0031 18.3516" fill="#E8E8E8"></path>
<path d="M19.6618 28.6802H19.6218C18.7718 28.2502 19.1218 27.6202 19.2018 27.4902C19.5618 27.7502 19.7618 28.1102 19.6518 28.6802" fill="#F0F0F0"></path>
</svg>